<mxfile host="app.diagrams.net" modified="2023-10-06T01:22:18.404Z" agent="Mozilla/5.0 (Windows NT 10.0; Win64; x64) AppleWebKit/537.36 (KHTML, like Gecko) Chrome/117.0.0.0 Safari/537.36" version="22.0.3" etag="85Mw6lYs3LQkQy5Mqczs" type="github">
  <diagram name="PÃ¡gina-1" id="Xer-kJoLig2KIuSN6qOD">
    <mxGraphModel>
      <root>
        <mxCell id="0" />
        <mxCell id="1" parent="0" />
      </root>
    </mxGraphModel>
  </diagram>
</mxfile>
